<?xml version="1.0" standalone="no"?>
<!DOCTYPE svg PUBLIC "-//W3C//DTD SVG 20010904//EN"
 "http://www.w3.org/TR/2001/REC-SVG-20010904/DTD/svg10.dtd">
<svg version="1.0" xmlns="http://www.w3.org/2000/svg"
 width="391.000000pt" height="391.000000pt" viewBox="0 0 391.000000 391.000000"
 preserveAspectRatio="xMidYMid meet">

<g transform="translate(0.000000,391.000000) scale(0.100000,-0.100000)"
fill="#000000" stroke="none">
<path d="M1881 3679 c-429 -48 -835 -258 -1113 -574 -101 -116 -218 -294 -218
-333 0 -37 37 -68 69 -57 12 3 54 57 95 118 133 201 262 332 451 459 478 321
1068 365 1591 118 89 -42 224 -124 293 -178 l23 -19 -163 -43 c-199 -52 -211
-58 -207 -108 5 -64 25 -64 280 2 123 31 234 63 248 69 38 19 36 58 -15 249
-70 261 -75 277 -91 293 -34 34 -94 5 -94 -46 0 -13 16 -81 34 -151 19 -71 33
-128 30 -128 -2 0 -25 15 -51 34 -186 132 -446 237 -698 281 -111 20 -351 27
-464 14z"/>
<path d="M3534 2743 c-6 -5 -16 -18 -23 -31 -10 -19 -7 -34 22 -100 48 -108
94 -255 114 -365 25 -133 25 -437 -1 -572 -71 -385 -286 -739 -592 -981 -77
-60 -224 -157 -230 -151 -2 2 14 70 36 153 45 167 47 186 24 208 -19 20 -68
21 -83 2 -10 -12 -115 -381 -138 -481 -10 -47 21 -63 252 -125 226 -61 272
-69 293 -48 16 16 15 73 -1 87 -8 6 -84 29 -170 52 l-155 42 90 57 c282 177
511 434 652 730 123 261 174 510 163 804 -3 83 -12 189 -21 236 -29 159 -103
383 -149 452 -22 33 -60 47 -83 31z"/>
<path d="M193 2008 c-148 -148 -183 -187 -183 -210 0 -29 31 -58 64 -58 11 0
69 49 138 117 65 64 118 114 118 111 0 -59 26 -287 41 -358 95 -460 378 -866
780 -1119 83 -52 273 -142 359 -170 163 -52 385 -91 523 -91 61 0 87 19 87 62
0 44 -26 55 -143 62 -437 27 -824 215 -1121 546 -177 198 -316 477 -370 745
-17 85 -39 316 -30 324 2 3 57 -48 122 -112 124 -123 150 -138 185 -99 35 39
23 58 -155 241 -170 172 -188 189 -217 190 -8 1 -97 -81 -198 -181z"/>
</g>
</svg>
