<?xml version="1.0" encoding="UTF-8"?>
<svg xmlns="http://www.w3.org/2000/svg" xmlns:xlink="http://www.w3.org/1999/xlink" width="32px" height="px" viewBox="0 0 32 32" version="1.1">
<g id="surface1">
<path style=" stroke:none;fill-rule:nonzero;fill:rgb(0%,0%,0%);fill-opacity:1;" d="M 19.582031 0.6875 C 19.105469 0.976562 19.125 1.332031 19.65625 2.335938 C 19.882812 2.757812 20.0625 3.117188 20.0625 3.136719 C 20.0625 3.148438 19.761719 3.085938 19.394531 2.992188 C 18.15625 2.667969 17.53125 2.59375 16 2.59375 C 14.945312 2.59375 14.429688 2.625 13.929688 2.707031 C 8.050781 3.695312 3.625 8.113281 2.644531 13.992188 C 2.507812 14.820312 2.488281 17.125 2.613281 17.9375 C 2.875 19.65625 3.695312 22 4.15625 22.363281 C 4.550781 22.675781 5.167969 22.449219 5.304688 21.957031 C 5.363281 21.761719 5.34375 21.667969 5.210938 21.351562 C 4.742188 20.238281 4.542969 19.699219 4.375 19.039062 C 3.042969 13.867188 5.304688 8.429688 9.925781 5.707031 C 11.085938 5.019531 12.269531 4.570312 13.636719 4.273438 C 14.675781 4.0625 16.429688 4 17.53125 4.148438 C 18.28125 4.25 19.175781 4.457031 19.8125 4.675781 L 20.148438 4.792969 L 19.199219 5.425781 C 18.210938 6.085938 18.054688 6.238281 18.050781 6.554688 C 18.039062 7.011719 18.335938 7.332031 18.78125 7.332031 C 19 7.332031 19.226562 7.207031 20.625 6.273438 C 21.5 5.695312 22.269531 5.144531 22.332031 5.054688 C 22.570312 4.726562 22.507812 4.550781 21.554688 2.730469 C 21.070312 1.800781 20.625 0.96875 20.574219 0.886719 C 20.367188 0.570312 19.925781 0.476562 19.582031 0.6875 Z M 19.582031 0.6875 "/>
<path style=" stroke:none;fill-rule:nonzero;fill:rgb(0%,0%,0%);fill-opacity:1;" d="M 27.207031 9.605469 C 27.125 9.617188 26.980469 9.71875 26.875 9.820312 C 26.601562 10.101562 26.601562 10.355469 26.882812 10.980469 C 28.84375 15.300781 28.1875 20.199219 25.175781 23.78125 C 22.113281 27.425781 17.261719 28.894531 12.664062 27.582031 C 11.625 27.289062 11.625 27.382812 12.664062 26.601562 C 13.164062 26.226562 13.625 25.851562 13.695312 25.761719 C 13.761719 25.667969 13.8125 25.511719 13.8125 25.363281 C 13.8125 24.882812 13.523438 24.585938 13.054688 24.601562 C 12.835938 24.605469 12.632812 24.742188 11.257812 25.78125 C 10.398438 26.425781 9.664062 27.023438 9.617188 27.105469 C 9.429688 27.457031 9.5 27.617188 10.605469 29.449219 C 11.699219 31.269531 11.832031 31.4375 12.21875 31.4375 C 12.644531 31.4375 13.054688 30.960938 12.96875 30.570312 C 12.949219 30.476562 12.75 30.09375 12.523438 29.726562 C 12.300781 29.351562 12.132812 29.039062 12.136719 29.023438 C 12.148438 29.011719 12.425781 29.074219 12.75 29.15625 C 13.851562 29.4375 14.617188 29.523438 16 29.523438 C 17.507812 29.523438 18.4375 29.398438 19.761719 29.023438 C 25.011719 27.523438 28.867188 22.894531 29.445312 17.382812 C 29.542969 16.429688 29.488281 14.742188 29.320312 13.8125 C 29.09375 12.539062 28.492188 10.726562 28.0625 10.019531 C 27.867188 9.699219 27.539062 9.539062 27.207031 9.605469 Z M 27.207031 9.605469 "/>
</g>
</svg>
