<?xml version="1.0" standalone="no"?>
<!DOCTYPE svg PUBLIC "-//W3C//DTD SVG 20010904//EN"
 "http://www.w3.org/TR/2001/REC-SVG-20010904/DTD/svg10.dtd">
<svg version="1.0" xmlns="http://www.w3.org/2000/svg"
 width="512.000000pt" height="512.000000pt" viewBox="0 0 512.000000 512.000000"
 preserveAspectRatio="xMidYMid meet">

<g transform="translate(0.000000,512.000000) scale(0.100000,-0.100000)"
fill="#000000" stroke="none">
<path d="M3133 5010 c-76 -46 -73 -103 12 -264 36 -67 65 -125 65 -128 0 -2
-48 8 -107 23 -198 52 -298 64 -543 64 -169 0 -251 -5 -331 -18 -941 -158
-1649 -865 -1806 -1806 -22 -132 -25 -501 -5 -631 42 -275 173 -650 247 -708
63 -50 162 -14 184 65 9 31 6 46 -15 97 -75 178 -107 264 -134 370 -213 827
149 1697 888 2133 186 110 375 182 594 229 166 34 447 44 623 20 120 -16 263
-49 365 -84 l54 -19 -152 -101 c-158 -106 -183 -130 -184 -181 -2 -73 46 -124
117 -124 35 0 71 20 295 169 140 93 263 181 273 195 38 53 28 81 -124 372 -78
149 -149 282 -157 295 -33 51 -104 66 -159 32z"/>
<path d="M4353 3583 c-13 -2 -36 -18 -53 -34 -44 -45 -44 -86 1 -186 314 -691
209 -1475 -273 -2048 -490 -583 -1266 -818 -2002 -608 -166 47 -166 32 0 157
80 60 154 120 165 134 11 15 19 40 19 64 0 77 -46 124 -121 122 -35 -1 -68
-23 -288 -189 -137 -103 -255 -199 -262 -212 -30 -56 -19 -82 158 -375 175
-291 196 -318 258 -318 68 0 134 76 120 139 -3 15 -35 76 -71 135 -36 60 -63
110 -62 112 2 2 46 -8 98 -21 176 -45 299 -59 520 -59 241 0 390 20 602 80
840 240 1457 981 1549 1863 16 152 7 422 -20 571 -36 204 -132 494 -201 607
-31 51 -84 77 -137 66z"/>
</g>
</svg>
