<?xml version="1.0" encoding="UTF-8"?>
<svg xmlns="http://www.w3.org/2000/svg" xmlns:xlink="http://www.w3.org/1999/xlink" width="32px" height="px" viewBox="0 0 32 32" version="1.1">
<g id="surface1">
<path style=" stroke:none;fill-rule:nonzero;fill:rgb(0%,0%,0%);fill-opacity:1;" d="M 3.070312 1.78125 C 2.441406 1.972656 1.878906 2.5625 1.6875 3.21875 C 1.558594 3.644531 1.539062 4.191406 1.566406 6.882812 C 1.59375 9.925781 1.605469 10.054688 1.796875 10.417969 C 2.058594 10.898438 2.632812 11.417969 3.070312 11.546875 C 3.308594 11.617188 4.5 11.636719 6.804688 11.617188 L 10.1875 11.589844 L 10.578125 11.316406 C 10.796875 11.164062 11.097656 10.863281 11.253906 10.644531 C 11.527344 10.261719 11.527344 10.246094 11.570312 8.789062 L 11.617188 7.316406 L 20.183594 7.316406 L 20.238281 8.773438 C 20.265625 9.574219 20.320312 10.308594 20.347656 10.410156 C 20.402344 10.554688 19.535156 11.472656 15.460938 15.574219 L 10.523438 20.5625 L 10.121094 20.417969 C 9.796875 20.300781 9.222656 20.273438 6.613281 20.273438 C 4.757812 20.273438 3.371094 20.308594 3.171875 20.363281 C 2.660156 20.507812 2.085938 20.992188 1.832031 21.5 L 1.59375 21.945312 L 1.59375 25.316406 C 1.59375 28.617188 1.59375 28.691406 1.796875 29.054688 C 2.050781 29.535156 2.625 30.027344 3.089844 30.164062 C 3.324219 30.238281 4.472656 30.273438 6.660156 30.273438 C 9.851562 30.273438 9.894531 30.273438 10.339844 30.054688 C 10.597656 29.9375 10.914062 29.710938 11.050781 29.546875 C 11.507812 29.007812 11.570312 28.726562 11.570312 27.261719 L 11.570312 25.910156 L 25.09375 25.910156 L 23.808594 27.199219 C 23.105469 27.917969 22.496094 28.589844 22.46875 28.699219 C 22.40625 28.898438 22.542969 29.261719 22.722656 29.382812 C 23.070312 29.617188 23.28125 29.464844 25.222656 27.519531 C 26.871094 25.871094 27.152344 25.546875 27.152344 25.316406 C 27.152344 25.089844 26.871094 24.761719 25.210938 23.117188 C 23.144531 21.054688 23.007812 20.953125 22.597656 21.363281 C 22.203125 21.753906 22.324219 21.945312 23.753906 23.382812 L 25.101562 24.726562 L 11.570312 24.726562 L 11.570312 23.472656 C 11.5625 22.628906 11.515625 22.109375 11.433594 21.863281 L 11.296875 21.5 L 16.300781 16.507812 L 21.304688 11.519531 L 21.59375 11.628906 C 21.796875 11.691406 22.96875 11.726562 25.210938 11.726562 C 28.867188 11.726562 28.910156 11.71875 29.503906 11.15625 C 29.675781 10.992188 29.894531 10.699219 30.003906 10.5 C 30.195312 10.144531 30.203125 10.054688 30.203125 6.636719 L 30.203125 3.136719 L 29.960938 2.71875 C 29.6875 2.253906 29.195312 1.882812 28.65625 1.738281 C 28.074219 1.582031 22.367188 1.601562 21.832031 1.761719 C 21.265625 1.9375 20.839844 2.273438 20.527344 2.800781 C 20.28125 3.210938 20.273438 3.289062 20.246094 4.609375 L 20.210938 6 L 11.679688 6 L 11.644531 4.609375 C 11.617188 3.289062 11.609375 3.210938 11.363281 2.800781 C 11.050781 2.273438 10.625 1.9375 10.058594 1.761719 C 9.421875 1.574219 3.699219 1.589844 3.070312 1.78125 Z M 9.941406 3 C 10.359375 3.226562 10.386719 3.425781 10.386719 6.78125 L 10.394531 9.945312 L 10.113281 10.21875 L 9.839844 10.5 L 6.851562 10.527344 C 3.644531 10.5625 3.335938 10.527344 3.015625 10.117188 C 2.832031 9.890625 2.824219 9.773438 2.824219 6.664062 L 2.824219 3.4375 L 3.351562 2.910156 L 6.558594 2.910156 C 8.582031 2.910156 9.824219 2.945312 9.941406 3 Z M 28.554688 3.007812 C 29.039062 3.226562 29.066406 3.4375 29.066406 6.800781 C 29.066406 9.773438 29.058594 9.890625 28.875 10.117188 C 28.554688 10.527344 28.246094 10.5625 25.039062 10.527344 L 22.050781 10.5 L 21.757812 10.199219 L 21.457031 9.910156 L 21.429688 6.925781 C 21.394531 3.726562 21.429688 3.417969 21.839844 3.101562 C 22.066406 2.917969 22.1875 2.910156 25.203125 2.910156 C 27.34375 2.910156 28.402344 2.945312 28.554688 3.007812 Z M 9.960938 21.664062 C 10.105469 21.753906 10.25 21.925781 10.296875 22.054688 C 10.351562 22.183594 10.386719 23.644531 10.386719 25.417969 L 10.386719 28.5625 L 9.859375 29.089844 L 3.351562 29.089844 L 2.824219 28.5625 L 2.824219 25.34375 C 2.824219 22.527344 2.84375 22.109375 2.96875 21.917969 C 3.28125 21.472656 3.472656 21.453125 6.695312 21.480469 C 9.429688 21.5 9.742188 21.519531 9.960938 21.664062 Z M 9.960938 21.664062 "/>
</g>
</svg>
