<?xml version="1.0" standalone="no"?>
<!DOCTYPE svg PUBLIC "-//W3C//DTD SVG 20010904//EN"
 "http://www.w3.org/TR/2001/REC-SVG-20010904/DTD/svg10.dtd">
<svg version="1.0" xmlns="http://www.w3.org/2000/svg"
 width="351.000000pt" height="352.000000pt" viewBox="0 0 351.000000 352.000000"
 preserveAspectRatio="xMidYMid meet">

<g transform="translate(0.000000,352.000000) scale(0.100000,-0.100000)"
fill="#000000" stroke="none">
<path d="M337 3324 c-69 -21 -131 -86 -152 -158 -14 -47 -16 -107 -13 -403 3
-335 4 -349 25 -389 29 -53 92 -110 140 -124 26 -8 157 -10 410 -8 l371 3 43
30 c24 17 57 50 74 74 30 42 30 44 35 204 l5 162 470 0 470 0 6 -160 c3 -88 9
-169 12 -180 6 -16 -89 -117 -536 -568 l-542 -549 -44 16 c-36 13 -99 16 -385
16 -204 0 -356 -4 -378 -10 -56 -16 -119 -69 -147 -125 l-26 -49 0 -371 c0
-363 0 -371 22 -411 28 -53 91 -107 142 -122 26 -8 152 -12 392 -12 350 0 355
0 404 24 28 13 63 38 78 56 50 59 57 90 57 251 l0 149 742 0 742 0 -141 -142
c-77 -79 -144 -153 -147 -165 -7 -22 8 -62 28 -75 38 -26 61 -9 274 205 181
181 212 217 212 242 0 25 -31 61 -213 242 -227 227 -242 238 -287 193 -43 -43
-30 -64 127 -222 l148 -148 -743 0 -742 0 0 138 c-1 93 -6 150 -15 177 l-15
40 549 549 549 549 32 -12 c22 -7 151 -11 397 -11 401 0 406 1 471 63 19 18
43 50 55 72 21 39 22 49 22 425 l0 385 -27 46 c-30 51 -84 92 -143 108 -64 17
-690 15 -749 -3 -62 -19 -109 -56 -143 -114 -27 -45 -28 -54 -31 -199 l-4
-153 -468 0 -468 0 -4 153 c-3 145 -4 154 -31 199 -34 58 -81 95 -143 114 -70
21 -698 19 -767 -2z m754 -134 c46 -25 49 -47 49 -416 l1 -348 -31 -30 -30
-31 -328 -3 c-352 -4 -386 0 -421 45 -20 25 -21 38 -21 380 l0 355 29 29 29
29 352 0 c222 0 358 -4 371 -10z m2043 -1 c53 -24 56 -47 56 -417 0 -327 -1
-340 -21 -365 -35 -45 -69 -49 -421 -45 l-328 3 -32 33 -33 32 -3 328 c-4 352
0 386 45 421 25 20 38 21 369 21 235 0 351 -4 368 -11z m-2041 -2052 c16 -10
32 -29 37 -43 6 -14 10 -175 10 -370 l0 -346 -29 -29 -29 -29 -357 0 -357 0
-29 29 -29 29 0 354 c0 310 2 356 16 377 34 49 55 51 409 48 300 -2 334 -4
358 -20z"/>
</g>
</svg>
